<?xml version="1.0" encoding="utf-8"?><svg version="1.1" id="Layer_1" xmlns="http://www.w3.org/2000/svg" xmlns:xlink="http://www.w3.org/1999/xlink" x="0px" y="0px" viewBox="0 0 111.81 122.88" style="enable-background:new 0 0 111.81 122.88" xml:space="preserve"><style type="text/css"><![CDATA[
	.st0{fill-rule:evenodd;clip-rule:evenodd;fill:#E94033;}
	.st1{fill-rule:evenodd;clip-rule:evenodd;fill:#FFFFFF;}
]]></style><g><path class="st0" d="M55.71,0c20.85,13.22,39.68,19.47,55.85,17.99c2.82,57.1-18.26,90.82-55.63,104.89 C19.84,109.71-1.5,77.44,0.08,17.12C19.06,18.12,37.67,14.01,55.71,0L55.71,0L55.71,0z"/><path class="st1" d="M55.73,7.05c18.45,11.7,35.13,17.23,49.43,15.92c2.5,50.54-16.17,80.39-49.24,92.85 C23.98,104.16,5.09,75.6,6.49,22.21C23.29,23.09,39.77,19.46,55.73,7.05L55.73,7.05L55.73,7.05z"/><path class="st0" d="M56.24,19.54c14.22,9.01,27.06,13.27,38.08,12.27c1.92,38.94-12.45,61.93-37.93,71.52 c-0.16-0.06-0.32-0.12-0.48-0.18c-0.16,0.06-0.32,0.12-0.48,0.18c-25.48-9.6-39.86-32.59-37.93-71.52 c11.02,1.01,23.87-3.26,38.08-12.27l0,0l0.33,0.25L56.24,19.54L56.24,19.54L56.24,19.54z"/><path class="st1" d="M64.06,45.23c5.38-5.46,13.82-0.87,10.19,2.82L61.54,60.87l7.83,7.94c4.2,4.27,1.09,14.15-3.12,9.87 L55.08,67.41L43.66,78.94c-4.25,4.31-9.15-3.78-4.05-8.96l9.01-9.12l-10.9-11.01c-4.2-4.27,5.37-7.69,9.58-3.42l7.77,7.88 L64.06,45.23L64.06,45.23z"/></g></svg>